<?xml version="1.0" encoding="UTF-8"?>
<svg xmlns="http://www.w3.org/2000/svg" width="19" height="18" viewBox="0 0 19 18" fill="none">
  <rect x="4.5" y="10" width="2" height="2" transform="rotate(-90 4.5 10)" fill="black"></rect>
  <rect x="2.5" y="10" width="2" height="2" transform="rotate(-90 2.5 10)" fill="black"></rect>
  <rect x="0.5" y="10" width="2" height="2" transform="rotate(-90 0.5 10)" fill="black"></rect>
  <rect x="6.5" y="10" width="2" height="2" transform="rotate(-90 6.5 10)" fill="black"></rect>
  <rect x="8.5" y="10" width="2" height="2" transform="rotate(-90 8.5 10)" fill="black"></rect>
  <rect x="10.5" y="10" width="2" height="2" transform="rotate(-90 10.5 10)" fill="black"></rect>
  <rect x="12.5" y="10" width="2" height="2" transform="rotate(-90 12.5 10)" fill="black"></rect>
  <rect x="14.5" y="10" width="2" height="2" transform="rotate(-90 14.5 10)" fill="black"></rect>
  <rect x="16.5" y="10" width="2" height="2" transform="rotate(-90 16.5 10)" fill="black"></rect>
  <rect x="14.5" y="12" width="2" height="2" transform="rotate(-90 14.5 12)" fill="black"></rect>
  <rect x="12.5" y="14" width="2" height="2" transform="rotate(-90 12.5 14)" fill="black"></rect>
  <rect x="10.5" y="16" width="2" height="2" transform="rotate(-90 10.5 16)" fill="black"></rect>
  <rect x="8.5" y="18" width="2" height="2" transform="rotate(-90 8.5 18)" fill="black"></rect>
  <rect x="14.5" y="8" width="2" height="2" transform="rotate(-90 14.5 8)" fill="black"></rect>
  <rect x="12.5" y="6" width="2" height="2" transform="rotate(-90 12.5 6)" fill="black"></rect>
  <rect x="10.5" y="4" width="2" height="2" transform="rotate(-90 10.5 4)" fill="black"></rect>
  <rect x="8.5" y="2" width="2" height="2" transform="rotate(-90 8.5 2)" fill="black"></rect>
</svg>
