<?xml version="1.0" encoding="UTF-8"?>
<!-- Generator: Adobe Illustrator 28.0.0, SVG Export Plug-In . SVG Version: 6.00 Build 0)  -->
<svg xmlns="http://www.w3.org/2000/svg" xmlns:xlink="http://www.w3.org/1999/xlink" version="1.1" id="Calque_1" x="0px" y="0px" viewBox="0 0 19 18" style="enable-background:new 0 0 19 18;" xml:space="preserve">
<style type="text/css">
	.st0{fill:#FFFFFF;}
</style>
<rect x="4.5" y="8" class="st0" width="2" height="2"></rect>
<rect x="2.5" y="8" class="st0" width="2" height="2"></rect>
<rect x="0.5" y="8" class="st0" width="2" height="2"></rect>
<rect x="6.5" y="8" class="st0" width="2" height="2"></rect>
<rect x="8.5" y="8" class="st0" width="2" height="2"></rect>
<rect x="10.5" y="8" class="st0" width="2" height="2"></rect>
<rect x="12.5" y="8" class="st0" width="2" height="2"></rect>
<rect x="14.5" y="8" class="st0" width="2" height="2"></rect>
<rect x="16.5" y="8" class="st0" width="2" height="2"></rect>
<rect x="14.5" y="10" class="st0" width="2" height="2"></rect>
<rect x="12.5" y="12" class="st0" width="2" height="2"></rect>
<rect x="10.5" y="14" class="st0" width="2" height="2"></rect>
<rect x="8.5" y="16" class="st0" width="2" height="2"></rect>
<rect x="14.5" y="6" class="st0" width="2" height="2"></rect>
<rect x="12.5" y="4" class="st0" width="2" height="2"></rect>
<rect x="10.5" y="2" class="st0" width="2" height="2"></rect>
<rect x="8.5" y="0" class="st0" width="2" height="2"></rect>
</svg>
